<?xml version="1.0" encoding="utf-8"?>
<!-- Generator: Adobe Illustrator 19.0.0, SVG Export Plug-In . SVG Version: 6.00 Build 0)  -->
<svg version="1.1" id="图层_1" xmlns="http://www.w3.org/2000/svg" xmlns:xlink="http://www.w3.org/1999/xlink" x="0px" y="0px"
	 viewBox="0 0 12.3 13" style="enable-background:new 0 0 12.3 13;" xml:space="preserve">
<style type="text/css">
	.st0{fill:#b5b6b6;}
</style>
<g>
	<g>
		<g>
			<path class="st0" d="M6.2,1.6c-2.1,0-3.8,1.7-3.8,3.8c0,2.1,1.7,3.8,3.8,3.8c2.1,0,3.8-1.7,3.8-3.8C9.9,3.4,8.2,1.6,6.2,1.6
				L6.2,1.6z M6.2,8.7C4.4,8.7,3,7.2,3,5.5c0-1.8,1.4-3.2,3.1-3.2s3.1,1.4,3.1,3.2C9.3,7.2,7.9,8.7,6.2,8.7L6.2,8.7z M9.8,8.8
				L9.6,8.7L9.4,8.8C8.6,9.6,7.4,10,6.2,10c-1.3,0-2.5-0.4-3.3-1.2L2.7,8.7L2.5,8.8c-1.7,0.9-2.4,2-2.5,3.8c0,0.2,0.1,0.3,0.3,0.4
				c0,0,0,0,0,0c0.2,0,0.3-0.1,0.3-0.3c0.1-1.6,0.6-2.4,2-3.2c0.9,0.8,2.2,1.2,3.6,1.2c1.4,0,2.6-0.4,3.6-1.2c1.3,0.8,1.8,1.6,2,3.2
				c0,0.2,0.2,0.3,0.3,0.3c0.2,0,0.3-0.2,0.3-0.4C12.2,10.7,11.5,9.7,9.8,8.8L9.8,8.8z M1.8,7V4.1c0.5-2,2.2-3.5,4.3-3.5
				c2.1,0,3.8,1.4,4.3,3.4V7C11.3,7,12,6.3,12,5.4c0-0.6-0.3-1.1-0.9-1.4c-0.5-2.4-2.5-4-5-4c-2.4,0-4.5,1.7-5,4
				C0.7,4.3,0.3,4.8,0.3,5.4C0.3,6.3,1,7,1.8,7L1.8,7z M1.8,7"/>
		</g>
	</g>
</g>
</svg>
