<?xml version="1.0" encoding="utf-8"?>
<!-- Generator: Adobe Illustrator 19.0.0, SVG Export Plug-In . SVG Version: 6.00 Build 0)  -->
<svg version="1.1" id="图层_1" xmlns="http://www.w3.org/2000/svg" xmlns:xlink="http://www.w3.org/1999/xlink" x="0px" y="0px"
	 viewBox="0 0 12.1 15.6" style="enable-background:new 0 0 12.1 15.6;" xml:space="preserve">
<style type="text/css">
	.st0{fill:#666666;}
</style>
<g>
	<g>
		<path class="st0" d="M2.4,10L6,13.3L9.7,10c0.6-0.6,1.2-1.3,1.5-2c0.3-0.8,0.5-1.5,0.5-2.3c0-1.5-0.6-2.9-1.7-4C9,0.6,7.5,0,6,0
			C4.5,0,3.1,0.6,2,1.7C1,2.7,0.4,4.2,0.4,5.7c0,0.8,0.2,1.6,0.5,2.3C1.2,8.8,1.8,9.4,2.4,10L2.4,10z M2.6,2.2
			C3.5,1.3,4.7,0.8,6,0.8s2.6,0.5,3.5,1.4c0.9,0.9,1.4,2.2,1.4,3.5c0,0.7-0.2,1.4-0.5,2c-0.3,0.7-0.8,1.3-1.4,1.8L6,12.3L2.9,9.5
			c-0.6-0.5-1-1.1-1.4-1.8c-0.3-0.6-0.5-1.3-0.5-2C1.1,4.4,1.6,3.1,2.6,2.2L2.6,2.2z M2.6,2.2"/>
	</g>
	<g>
		<path class="st0" d="M6,8.3c1.2,0,2.3-1,2.3-2.3c0-1.2-1-2.3-2.3-2.3c-1.2,0-2.3,1-2.3,2.3C3.8,7.3,4.8,8.3,6,8.3L6,8.3z M6,4.5
			c0.8,0,1.5,0.7,1.5,1.5c0,0.8-0.7,1.5-1.5,1.5S4.5,6.9,4.5,6C4.5,5.2,5.2,4.5,6,4.5L6,4.5z M10.2,10.9c-0.2-0.1-0.4,0-0.5,0.2
			c-0.1,0.2,0,0.4,0.2,0.5c0.9,0.3,1.4,0.8,1.4,1.2c0,0.9-2.2,1.9-5.3,1.9c-3.1,0-5.3-1-5.3-1.9c0-0.4,0.5-0.9,1.4-1.2
			c0.2-0.1,0.3-0.3,0.2-0.5c-0.1-0.2-0.3-0.3-0.5-0.2c-1.3,0.5-2,1.2-2,2c0,1.5,2.6,2.6,6,2.6c3.4,0,6-1.1,6-2.6
			C12.1,12.1,11.4,11.4,10.2,10.9L10.2,10.9z M10.2,10.9"/>
	</g>
</g>
</svg>
