<?xml version="1.0" encoding="utf-8"?>
<!-- Generator: Adobe Illustrator 19.0.0, SVG Export Plug-In . SVG Version: 6.00 Build 0)  -->
<svg version="1.1" id="图层_1" xmlns="http://www.w3.org/2000/svg" xmlns:xlink="http://www.w3.org/1999/xlink" x="0px" y="0px"
	 viewBox="0 0 12.1 11.5" style="enable-background:new 0 0 12.1 11.5;" xml:space="preserve">
<style type="text/css">
	.st0{fill:#b5b6b6;}
</style>
<g>
	<g>
		<g>
			<path class="st0" d="M11.4,0.7v2c-1.2,0.5-2,1.7-2,3c0,1.3,0.8,2.5,2,3v2.2H0.7V8.6c1.2-0.5,2-1.7,2-3c0-1.3-0.8-2.5-2-3v-2H11.4
				 M12.1,0H0v3.2c1.2,0.3,2,1.3,2,2.5c0,1.2-0.9,2.2-2,2.5v3.3h12.1V8.1c-1.2-0.3-2-1.3-2-2.5c0-1.2,0.9-2.2,2-2.5V0L12.1,0z"/>
		</g>
	</g>
	<g>
		<g>
			<path class="st0" d="M8.6,2.7L6.8,5.5h1.4v0.6H6.6v0.8h1.7v0.6H6.6v1.2H5.7V7.5H4V6.9h1.7V6.1H4V5.5h1.4L3.6,2.7h1l1.2,2.1
				C6,5,6,5.1,6.1,5.3h0C6.2,5.2,6.3,5,6.4,4.8l1.2-2.1H8.6z"/>
		</g>
	</g>
</g>
</svg>
