<?xml version="1.0" encoding="utf-8"?>
<!-- Generator: Adobe Illustrator 19.0.0, SVG Export Plug-In . SVG Version: 6.00 Build 0)  -->
<svg version="1.1" id="图层_1" xmlns="http://www.w3.org/2000/svg" xmlns:xlink="http://www.w3.org/1999/xlink" x="0px" y="0px"
	 viewBox="0 0 23 23" style="enable-background:new 0 0 23 23;" xml:space="preserve">
<style type="text/css">
	.st0{fill:#FFFFFF;}
	.st1{fill:#C9CACA;}
</style>
<g id="XMLID_141_">
	<g id="XMLID_10_">
		<circle id="XMLID_168_" class="st0" cx="11.5" cy="11.5" r="11.1"/>
		<path id="XMLID_171_" class="st1" d="M11.5,23c-3.1,0-6-1.2-8.1-3.4C1.2,17.5,0,14.6,0,11.5s1.2-6,3.4-8.1
			c4.5-4.5,11.8-4.5,16.3,0c2.2,2.2,3.4,5.1,3.4,8.1s-1.2,6-3.4,8.1l0,0C17.5,21.8,14.6,23,11.5,23z M11.5,0.8C8.8,0.8,6,1.9,4,3.9
			C-0.2,8.1-0.2,14.9,4,19c2,2,4.7,3.1,7.5,3.1c2.9,0,5.5-1.1,7.5-3.1l0,0c4.2-4.2,4.2-10.9,0-15.1C17,1.9,14.2,0.8,11.5,0.8z"/>
	</g>
	<g id="XMLID_9_">
		<path id="XMLID_170_" class="st1" d="M14,14.9c-0.2,0-0.5-0.1-0.7-0.3L8.4,9.7C8,9.3,8,8.7,8.4,8.4c0.4-0.4,1-0.4,1.3,0l4.9,4.9
			c0.4,0.4,0.4,1,0,1.3C14.4,14.8,14.2,14.9,14,14.9z"/>
	</g>
	<g id="XMLID_8_">
		<path id="XMLID_169_" class="st1" d="M9,14.9c-0.2,0-0.5-0.1-0.7-0.3c-0.4-0.4-0.4-1,0-1.3l4.9-4.9c0.4-0.4,1-0.4,1.3,0
			c0.4,0.4,0.4,1,0,1.3l-4.9,4.9C9.5,14.8,9.3,14.9,9,14.9z"/>
	</g>
</g>
</svg>
