<?xml version="1.0" encoding="utf-8"?>
<!-- Generator: Adobe Illustrator 19.0.0, SVG Export Plug-In . SVG Version: 6.00 Build 0)  -->
<svg version="1.1" id="图层_1" xmlns="http://www.w3.org/2000/svg" xmlns:xlink="http://www.w3.org/1999/xlink" x="0px" y="0px"
	 viewBox="0 0 22 22" style="enable-background:new 0 0 22 22;" xml:space="preserve">
<style type="text/css">
	.st0{fill:#666666;}
</style>
<g id="XMLID_4_">
	<path id="XMLID_35_" class="st0" d="M11,22c-2.9,0-5.6-1.1-7.6-3.1c-2.1-2-3.3-4.8-3.4-7.7c-0.1-2.9,1-5.7,3.1-7.8
		C7.3-1,14.3-1.1,18.6,3.1c4.4,4.2,4.5,11.2,0.3,15.6c-2,2.1-4.8,3.3-7.7,3.4C11.1,22,11.1,22,11,22z M11,0.8c-2.7,0-5.3,1-7.3,3.1
		c-1.9,2-2.9,4.5-2.9,7.3c0,2.7,1.2,5.3,3.1,7.2c2,1.9,4.5,2.9,7.3,2.9c2.7,0,5.3-1.2,7.2-3.1c3.9-4,3.8-10.5-0.3-14.4
		C16.1,1.7,13.6,0.8,11,0.8z"/>
</g>
<g id="XMLID_1_">
	<g id="XMLID_2_">
		<g id="XMLID_11_">
			<path class="st0" d="M15.7,9.3l-4.9,4.9l-2.4-2.4l4.9-4.9L15.7,9.3z M7.4,12.7l2.4,2.4H7.4V12.7z M7.4,12.7"/>
		</g>
	</g>
</g>
</svg>
