<?xml version="1.0" encoding="utf-8"?>
<!-- Generator: Adobe Illustrator 19.0.0, SVG Export Plug-In . SVG Version: 6.00 Build 0)  -->
<svg version="1.1" id="图层_1" xmlns="http://www.w3.org/2000/svg" xmlns:xlink="http://www.w3.org/1999/xlink" x="0px" y="0px"
	 viewBox="0 0 13.3 12.2" style="enable-background:new 0 0 13.3 12.2;" xml:space="preserve">
<style type="text/css">
	.st0{fill:#b5b6b6;}
</style>
<g>
	<path class="st0" d="M13.3,1c0-0.5-0.4-1-1-1H4.9c-0.5,0-1,0.4-1,1v1.6c0,0,0,0,0,0.1L1.2,4C0.5,4.4,0,5.1,0,6v4.8h2v0h0
		c0.2,0.8,0.9,1.4,1.7,1.4c0.8,0,1.5-0.6,1.7-1.4h0c0,0,0,0,0,0h2.2v0h0.1c0.2,0.8,0.9,1.4,1.7,1.4c0.8,0,1.6-0.6,1.7-1.4h2L13.3,1
		L13.3,1z M3.7,11.3c-0.5,0-0.9-0.4-0.9-0.9c0-0.5,0.4-0.9,0.9-0.9c0.5,0,0.9,0.4,0.9,0.9C4.7,10.9,4.3,11.3,3.7,11.3L3.7,11.3z
		 M9.5,11.3c-0.5,0-0.9-0.4-0.9-0.9c0-0.5,0.4-0.9,0.9-0.9c0.5,0,0.9,0.4,0.9,0.9C10.5,10.9,10.1,11.3,9.5,11.3L9.5,11.3z M12.4,9.9
		h-1.2C11,9.1,10.4,8.6,9.5,8.6C8.7,8.6,8,9.1,7.8,9.9H5.4C5.3,9.1,4.6,8.6,3.7,8.6C2.9,8.6,2.2,9.1,2,9.9H0.8V6
		c0-0.5,0.3-1,0.8-1.3l2.6-1.4c0.3-0.2,0.5-0.5,0.5-0.8V1c0-0.1,0.1-0.1,0.1-0.1h7.5c0.1,0,0.1,0.1,0.1,0.1V9.9z M12.4,9.9"/>
	<path class="st0" d="M4.6,4.1c-0.2,0-0.4,0.2-0.4,0.4v2.1H2.1C1.8,6.6,1.7,6.8,1.7,7c0,0.2,0.2,0.4,0.4,0.4h2.5C4.8,7.4,5,7.3,5,7
		V4.5C5,4.3,4.8,4.1,4.6,4.1L4.6,4.1z M4.6,4.1"/>
</g>
</svg>
