<?xml version="1.0" encoding="utf-8"?>
<!-- Generator: Adobe Illustrator 19.0.0, SVG Export Plug-In . SVG Version: 6.00 Build 0)  -->
<svg version="1.1" id="图层_1" xmlns="http://www.w3.org/2000/svg" xmlns:xlink="http://www.w3.org/1999/xlink" x="0px" y="0px"
	 viewBox="0 0 23 23" style="enable-background:new 0 0 23 23;" xml:space="preserve">
<style type="text/css">
	.st0{fill:#FFFFFF;}
	.st1{fill:#C9CACA;}
</style>
<g id="XMLID_113_">
	<g id="XMLID_2_">
		<circle id="XMLID_180_" class="st0" cx="11.5" cy="11.5" r="11.1"/>
		<path id="XMLID_182_" class="st1" d="M11.5,23C5.2,23,0,17.8,0,11.5S5.2,0,11.5,0S23,5.2,23,11.5S17.8,23,11.5,23z M11.5,0.8
			C5.6,0.8,0.8,5.6,0.8,11.5s4.8,10.7,10.7,10.7s10.7-4.8,10.7-10.7S17.4,0.8,11.5,0.8z"/>
	</g>
	<g id="XMLID_3_">
		<path id="XMLID_181_" class="st1" d="M15,12.4H8c-0.5,0-0.9-0.4-0.9-0.9c0-0.5,0.4-0.9,0.9-0.9h7c0.5,0,0.9,0.4,0.9,0.9
			C15.9,12,15.5,12.4,15,12.4z"/>
	</g>
</g>
</svg>
