<?xml version="1.0" encoding="utf-8"?>
<!-- Generator: Adobe Illustrator 19.0.0, SVG Export Plug-In . SVG Version: 6.00 Build 0)  -->
<svg version="1.1" id="图层_1" xmlns="http://www.w3.org/2000/svg" xmlns:xlink="http://www.w3.org/1999/xlink" x="0px" y="0px"
	 viewBox="0 0 83.1 83.1" style="enable-background:new 0 0 83.1 83.1;" xml:space="preserve">
<style type="text/css">
	.st0{fill-rule:evenodd;clip-rule:evenodd;fill:#E95513;}
</style>
<g>
	<path class="st0" d="M78.1,65.3c-3.2-4.8-7.7-8.6-13.4-11.4l-0.3-0.2l-0.3,0.2c-6.2,5.7-14.2,8.8-22.7,8.8
		c-8.5,0-16.5-3.1-22.7-8.7l-0.3-0.2l-0.3,0.2C12.5,56.7,8.1,60.5,5,65.3c-3.3,5-5,10.9-5,17.3v0.5h83.1v-0.5
		C83.1,76.1,81.4,70.3,78.1,65.3L78.1,65.3z M78.1,78.8h-73c1.2-9.6,7.8-16.4,13.2-19.5c6.9,5,14.1,7.3,23.5,7.3
		c8.2,0,17.2-3.1,23.1-8C72.2,62.7,77.8,71.3,78.1,78.8L78.1,78.8z"/>
	<path class="st0" d="M14.7,42.8h0.5V20.9l-0.6,0c5-10,15.4-16.4,26.8-16.4c11.4,0,21.8,6.4,26.7,16.4l-0.5,0v21.9h0.5
		c6.2,0,11.2-4.9,11.2-10.9c0-3.9-2.1-7.5-5.6-9.5c-2.3-6.5-6.5-12-12.2-16C55.6,2.2,48.7,0,41.4,0c-7.3,0-14.2,2.2-20.1,6.3
		c-5.7,4-9.9,9.6-12.3,16c-1.6,0.9-3,2.3-4,3.9c-1,1.7-1.6,3.6-1.6,5.6C3.6,37.9,8.6,42.8,14.7,42.8L14.7,42.8z"/>
	<path class="st0" d="M41.4,10.5c-13,0-23.6,10.4-23.6,23.1c0,6.2,2.5,12,6.9,16.4c4.5,4.4,10.4,6.8,16.7,6.8
		c13,0,23.6-10.4,23.6-23.2C65,20.8,54.4,10.5,41.4,10.5L41.4,10.5z M60.2,33.6c0,10.1-8.4,18.4-18.8,18.4
		c-10.4,0-18.8-8.2-18.8-18.4c0-10,8.6-18.4,18.8-18.4C51.7,15.2,60.2,23.4,60.2,33.6L60.2,33.6z"/>
</g>
</svg>
