<?xml version="1.0" encoding="utf-8"?>
<!-- Generator: Adobe Illustrator 19.0.0, SVG Export Plug-In . SVG Version: 6.00 Build 0)  -->
<svg version="1.1" id="图层_1" xmlns="http://www.w3.org/2000/svg" xmlns:xlink="http://www.w3.org/1999/xlink" x="0px" y="0px"
	 viewBox="0 0 28.4 35" style="enable-background:new 0 0 28.4 35;" xml:space="preserve">
<style type="text/css">
	.st0{fill:#B3B3B3;}
</style>
<g id="XMLID_5_">
	<path id="XMLID_6_" class="st0" d="M17.4,0h-6.7C9.9,0,9.2,0.8,9.2,1.9c0,1,0.7,1.9,1.5,1.9h6.8c0.8,0,1.4-0.8,1.4-1.9
		C18.9,0.8,18.3,0,17.4,0L17.4,0z M24.7,1.2h-3.3c0,0.2,0.1,0.4,0.1,0.6c0,1.6-1,3.1-2.2,3.1H9C7.7,5,6.7,3.4,6.7,1.9
		c0-0.2,0-0.4,0.1-0.6H3.4C0.7,1.2,0,3,0,5.6v25.2C0,33.5,1,35,3.6,35h20.9c2.6,0,3.9-1.2,3.9-4.3V5.6C28.4,3,27.2,1.3,24.7,1.2
		L24.7,1.2z M21.3,26.1H6.7c-0.5,0-1.1-0.8-1.1-1.4c0-0.6,0.5-1.1,1-1.1h14.5c0.5,0,1,0.5,1,1.1C22.2,25.4,21.8,26.1,21.3,26.1
		L21.3,26.1z M21.3,19.4H6.8c-0.5,0-0.9-0.7-0.9-1.3c0-0.6,0.5-1.2,1-1.2h14.5c0.5,0,1,0.6,1,1.2C22.4,18.8,21.9,19.4,21.3,19.4
		L21.3,19.4z M21.3,12.6H6.8c-0.5,0-0.9-0.7-0.9-1.3c0-0.6,0.5-1.2,1-1.2h14.5c0.5,0,1,0.6,1,1.2C22.4,11.9,21.9,12.6,21.3,12.6
		L21.3,12.6z M21.3,12.6"/>
</g>
</svg>
