<?xml version="1.0" encoding="utf-8"?>
<!-- Generator: Adobe Illustrator 19.0.0, SVG Export Plug-In . SVG Version: 6.00 Build 0)  -->
<svg version="1.1" id="图层_1" xmlns="http://www.w3.org/2000/svg" xmlns:xlink="http://www.w3.org/1999/xlink" x="0px" y="0px"
	 viewBox="0 0 28.4 35" style="enable-background:new 0 0 28.4 35;" xml:space="preserve">
<style type="text/css">
	.st0{fill:#B3B3B3;}
</style>
<g id="XMLID_13_">
	<path id="XMLID_17_" class="st0" d="M25,0H3.5C1.6,0,0,1.4,0,3.1v28.7C0,33.6,1.6,35,3.5,35h15.7v-5.6c0.4-2.2,1.8-2.6,2.5-2.6h6.7
		V3.1C28.4,1.4,26.9,0,25,0L25,0z M17,27.9H4.9c-0.3,0-0.5-0.2-0.5-0.5c0-0.3,0.2-0.5,0.5-0.5H17c0.3,0,0.5,0.2,0.5,0.5
		C17.5,27.7,17.3,27.9,17,27.9L17,27.9z M23.5,21.4H4.9c-0.3,0-0.5-0.2-0.5-0.5c0-0.3,0.2-0.5,0.5-0.5h18.7c0.3,0,0.5,0.2,0.5,0.5
		C24.1,21.1,23.8,21.4,23.5,21.4L23.5,21.4z M23.5,14.8H4.9c-0.3,0-0.5-0.2-0.5-0.5c0-0.3,0.2-0.5,0.5-0.5h18.7
		c0.3,0,0.5,0.2,0.5,0.5C24.1,14.6,23.8,14.8,23.5,14.8L23.5,14.8z M23.5,8.2H4.9C4.6,8.2,4.3,8,4.3,7.7c0-0.3,0.2-0.5,0.5-0.5h18.7
		c0.3,0,0.5,0.2,0.5,0.5C24.1,8,23.8,8.2,23.5,8.2L23.5,8.2z M23.5,8.2"/>
	<path id="XMLID_14_" class="st0" d="M20.2,29.5l0,5l7.9-6.6h-6.5C21.5,27.9,20.5,27.9,20.2,29.5L20.2,29.5z M20.2,29.5"/>
</g>
<g id="XMLID_5_">
	<path id="XMLID_6_" class="st0" d="M65.9,139.3h-7.7c-0.9,0-1.7,0.8-1.7,1.9c0,1,0.8,1.9,1.7,1.9h7.7c0.9,0,1.6-0.8,1.6-1.9
		C67.6,140.1,66.8,139.3,65.9,139.3L65.9,139.3z M74.2,140.5h-3.8c0,0.2,0.1,0.4,0.1,0.6c0,1.6-1.1,3.1-2.5,3.1H56.2
		c-1.4,0-2.6-1.6-2.6-3.1c0-0.2,0-0.4,0.1-0.6h-3.9c-3.1,0-3.9,1.8-3.9,4.3V170c0,2.7,1.1,4.3,4.1,4.3H74c3,0,4.5-1.2,4.5-4.3v-25.2
		C78.4,142.3,77.1,140.5,74.2,140.5L74.2,140.5z M70.3,165.4H53.7c-0.6,0-1.2-0.8-1.2-1.4c0-0.6,0.5-1.1,1.1-1.1h16.6
		c0.6,0,1.1,0.5,1.2,1.1C71.3,164.7,70.9,165.4,70.3,165.4L70.3,165.4z M70.3,158.7H53.7c-0.6,0-1-0.7-1-1.3c0-0.6,0.5-1.2,1.1-1.2
		h16.6c0.6,0,1.1,0.6,1.2,1.2C71.6,158.1,71,158.7,70.3,158.7L70.3,158.7z M70.3,151.9H53.7c-0.6,0-1-0.7-1-1.3
		c0-0.6,0.5-1.2,1.1-1.2h16.6c0.6,0,1.1,0.6,1.2,1.2C71.6,151.2,71,151.9,70.3,151.9L70.3,151.9z M70.3,151.9"/>
</g>
</svg>
