<?xml version="1.0" encoding="utf-8"?>
<!-- Generator: Adobe Illustrator 19.0.0, SVG Export Plug-In . SVG Version: 6.00 Build 0)  -->
<svg version="1.1" id="图层_1" xmlns="http://www.w3.org/2000/svg" xmlns:xlink="http://www.w3.org/1999/xlink" x="0px" y="0px"
	 viewBox="0 0 27.6 35" style="enable-background:new 0 0 27.6 35;" xml:space="preserve">
<style type="text/css">
	.st0{fill:#B3B3B3;}
</style>
<path id="XMLID_2_" class="st0" d="M13.7,0C6.1,0.1-0.1,6.3,0,13.9c0.1,6.9,10,17.4,12,19.5c2,2.1,2,2.1,4,0
	c2-2.2,11.7-12.8,11.7-19.7C27.6,6.1,21.3-0.1,13.7,0z M13.9,20.7c-3.7,0-6.8-3-6.8-6.7c0-3.7,3-6.8,6.7-6.8c3.7,0,6.8,3,6.8,6.7
	C20.6,17.6,17.6,20.6,13.9,20.7z"/>
<g id="XMLID_13_">
	<path id="XMLID_17_" class="st0" d="M72.9,79H51.5c-1.9,0-3.5,1.4-3.5,3.1v28.7c0,1.7,1.6,3.1,3.5,3.1h15.7v-5.6
		c0.4-2.2,1.8-2.6,2.5-2.6h6.7V82.2C76.4,80.4,74.9,79,72.9,79L72.9,79z M64.9,107H52.8c-0.3,0-0.5-0.2-0.5-0.5
		c0-0.3,0.2-0.5,0.5-0.5h12.1c0.3,0,0.5,0.2,0.5,0.5C65.5,106.7,65.3,107,64.9,107L64.9,107z M71.5,100.4H52.8
		c-0.3,0-0.5-0.2-0.5-0.5c0-0.3,0.2-0.5,0.5-0.5h18.7c0.3,0,0.5,0.2,0.5,0.5C72.1,100.1,71.8,100.4,71.5,100.4L71.5,100.4z
		 M71.5,93.8H52.8c-0.3,0-0.5-0.2-0.5-0.5c0-0.3,0.2-0.5,0.5-0.5h18.7c0.3,0,0.5,0.2,0.5,0.5C72.1,93.6,71.8,93.8,71.5,93.8
		L71.5,93.8z M71.5,87.3H52.8c-0.3,0-0.5-0.2-0.5-0.5c0-0.3,0.2-0.5,0.5-0.5h18.7c0.3,0,0.5,0.2,0.5,0.5
		C72.1,87,71.8,87.3,71.5,87.3L71.5,87.3z M71.5,87.3"/>
	<path id="XMLID_14_" class="st0" d="M68.2,108.6l0,5l7.9-6.6h-6.5C69.5,107,68.5,107,68.2,108.6L68.2,108.6z M68.2,108.6"/>
</g>
<g id="XMLID_5_">
	<path id="XMLID_6_" class="st0" d="M65.9,139.3h-7.7c-0.9,0-1.7,0.8-1.7,1.9c0,1,0.8,1.9,1.7,1.9h7.7c0.9,0,1.6-0.8,1.6-1.9
		C67.6,140.1,66.8,139.3,65.9,139.3L65.9,139.3z M74.2,140.5h-3.8c0,0.2,0.1,0.4,0.1,0.6c0,1.6-1.1,3.1-2.5,3.1H56.2
		c-1.4,0-2.6-1.6-2.6-3.1c0-0.2,0-0.4,0.1-0.6h-3.9c-3.1,0-3.9,1.8-3.9,4.3V170c0,2.7,1.1,4.3,4.1,4.3H74c3,0,4.5-1.2,4.5-4.3v-25.2
		C78.4,142.3,77.1,140.5,74.2,140.5L74.2,140.5z M70.3,165.4H53.7c-0.6,0-1.2-0.8-1.2-1.4c0-0.6,0.5-1.1,1.1-1.1h16.6
		c0.6,0,1.1,0.5,1.2,1.1C71.3,164.7,70.9,165.4,70.3,165.4L70.3,165.4z M70.3,158.7H53.7c-0.6,0-1-0.7-1-1.3c0-0.6,0.5-1.2,1.1-1.2
		h16.6c0.6,0,1.1,0.6,1.2,1.2C71.6,158.1,71,158.7,70.3,158.7L70.3,158.7z M70.3,151.9H53.7c-0.6,0-1-0.7-1-1.3
		c0-0.6,0.5-1.2,1.1-1.2h16.6c0.6,0,1.1,0.6,1.2,1.2C71.6,151.2,71,151.9,70.3,151.9L70.3,151.9z M70.3,151.9"/>
</g>
</svg>
