<?xml version="1.0" encoding="utf-8"?>
<!-- Generator: Adobe Illustrator 19.0.0, SVG Export Plug-In . SVG Version: 6.00 Build 0)  -->
<svg version="1.1" id="图层_1" xmlns="http://www.w3.org/2000/svg" xmlns:xlink="http://www.w3.org/1999/xlink" x="0px" y="0px"
	 viewBox="-277 390.8 12.9 12.9" style="enable-background:new -277 390.8 12.9 12.9;" xml:space="preserve">
<style type="text/css">
	.st0{fill:#b5b6b6;}
</style>
<g>
	<path class="st0" d="M-265.4,401.1c-1.2,1.6-3.1,2.6-5.2,2.6c-3.6,0-6.4-2.9-6.4-6.5c0-3.6,2.9-6.4,6.4-6.4c3.6,0,6.5,2.9,6.5,6.4
		c0,0.2-0.1,0.3-0.3,0.3c-0.2,0-0.3-0.1-0.3-0.3c0-3.2-2.6-5.8-5.8-5.8c-3.2,0-5.8,2.6-5.8,5.8c0,3.2,2.6,5.8,5.8,5.8
		c1.9,0,3.8-1,4.8-2.6h-1.3c-0.1,0-0.2,0-0.2-0.1c-0.1-0.1-0.1-0.1-0.1-0.2c0-0.2,0.1-0.3,0.3-0.3h1.9c0.1,0,0.2,0,0.2,0.1l0,0
		c0.1,0.1,0.1,0.1,0.1,0.2v1.9c0,0.2-0.1,0.3-0.3,0.3c-0.2,0-0.3-0.1-0.3-0.3V401.1z M-269.8,396h1.2c0.2,0,0.3,0.1,0.3,0.3
		c0,0.2-0.1,0.3-0.3,0.3h-1.6v1.3h1.6c0.2,0,0.3,0.1,0.3,0.3c0,0.2-0.1,0.3-0.3,0.3h-1.6v1.9c0,0.2-0.1,0.3-0.3,0.3
		c-0.2,0-0.3-0.1-0.3-0.3v-1.9h-1.6c-0.1,0-0.2,0-0.2-0.1c-0.1-0.1-0.1-0.1-0.1-0.2c0-0.2,0.1-0.3,0.3-0.3h1.6v-1.3h-1.6
		c-0.1,0-0.2,0-0.2-0.1c-0.1-0.1-0.1-0.1-0.1-0.2c0-0.2,0.1-0.3,0.3-0.3h1.2l-1.5-1.7c-0.1-0.1-0.1-0.3,0-0.4s0.3-0.1,0.4,0l1.7,2
		l1.7-2c0.1-0.1,0.3-0.2,0.5,0s0.2,0.3,0,0.5L-269.8,396L-269.8,396z M-269.8,396"/>
</g>
</svg>
