<?xml version="1.0" encoding="utf-8"?>
<!-- Generator: Adobe Illustrator 19.0.0, SVG Export Plug-In . SVG Version: 6.00 Build 0)  -->
<svg version="1.1" id="隔离模式" xmlns="http://www.w3.org/2000/svg" xmlns:xlink="http://www.w3.org/1999/xlink" x="0px"
	 y="0px" viewBox="-801 292 12.1 12.3" style="enable-background:new -801 292 12.1 12.3;" xml:space="preserve">
<style type="text/css">
	.st0{fill:#C9CACA;}
</style>
<g id="XMLID_1_">
	<path id="XMLID_5_" class="st0" d="M-793.1,298.8c1.1-0.6,1.8-1.8,1.8-3.1c0-2-1.7-3.7-3.7-3.7s-3.6,1.7-3.6,3.7s1.6,3.6,3.6,3.7
		l0,0c2.5,0,4.6,1.7,5.2,4.1h-10.3c0.3-1.3,1.1-2.4,2.1-3.2c0.2-0.1,0.2-0.4,0.1-0.6c-0.1-0.1-0.4-0.2-0.5,0c-1.4,1-2.3,2.5-2.6,4.2
		c0,0.1,0,0.2,0.1,0.3c0.1,0.1,0.2,0.1,0.3,0.1h11.3c0.1,0,0.2-0.1,0.3-0.1c0.1-0.1,0.1-0.2,0.1-0.3
		C-789.2,301.4-790.9,299.5-793.1,298.8L-793.1,298.8z M-797.8,295.7c0-1.6,1.3-2.9,2.9-2.9c1.6,0,2.9,1.3,2.9,2.9
		c0,1.6-1.3,2.9-2.9,2.9C-796.5,298.6-797.8,297.3-797.8,295.7L-797.8,295.7z"/>
</g>
</svg>
