<?xml version="1.0" encoding="utf-8"?>
<!-- Generator: Adobe Illustrator 19.0.0, SVG Export Plug-In . SVG Version: 6.00 Build 0)  -->
<svg version="1.1" id="图层_1" xmlns="http://www.w3.org/2000/svg" xmlns:xlink="http://www.w3.org/1999/xlink" x="0px" y="0px"
	 viewBox="-790 283 33.2 29.3" style="enable-background:new -790 283 33.2 29.3;" xml:space="preserve">
<style type="text/css">
	.st0{fill:#C9CACA;}
</style>
<g>
	<g>
		<path class="st0" d="M-790,284.5h2.4c0.5,0,1,0.4,1,0.8l2.8,19.2c0.2,1.2,1.3,2.1,2.6,2.1h22v-1.5h-22c-0.5,0-1-0.4-1-0.8
			l-2.7-19.2c-0.2-1.2-1.3-2.1-2.7-2.1h-2.4V284.5z"/>
		<path class="st0" d="M-781.9,288.3h22.8c0.4,0,0.6,0.2,0.6,0.6l-2,11.6c-0.1,0.4-0.6,0.8-1.1,0.8h-17.8c-0.4,0-0.8,0.3-0.8,0.7
			s0.4,0.7,0.8,0.7h17.9c1.3,0,2.5-0.9,2.7-1.9l2-11.6c0.2-1.1-0.8-2.1-2.2-2.1h-22.9c-0.4,0-0.8,0.3-0.8,0.7
			C-782.7,288-782.3,288.3-781.9,288.3L-781.9,288.3z M-782.7,310.7c0,0.6,0.3,1.1,0.8,1.4c0.5,0.3,1.1,0.3,1.6,0
			c0.5-0.3,0.8-0.8,0.8-1.4c0-0.6-0.3-1.1-0.8-1.4c-0.5-0.3-1.1-0.3-1.6,0C-782.4,309.6-782.7,310.1-782.7,310.7L-782.7,310.7z
			 M-763.1,310.7c0,0.6,0.3,1.1,0.8,1.4c0.5,0.3,1.1,0.3,1.6,0c0.5-0.3,0.8-0.8,0.8-1.4c0-0.6-0.3-1.1-0.8-1.4
			c-0.5-0.3-1.1-0.3-1.6,0C-762.8,309.6-763.1,310.1-763.1,310.7L-763.1,310.7z"/>
	</g>
</g>
</svg>
